<?xml version="1.0" standalone="no"?>
<!DOCTYPE svg PUBLIC "-//W3C//DTD SVG 20010904//EN"
 "http://www.w3.org/TR/2001/REC-SVG-20010904/DTD/svg10.dtd">
<svg version="1.0" xmlns="http://www.w3.org/2000/svg"
 width="300.000000pt" height="301.000000pt" viewBox="0 0 300.000000 301.000000"
 preserveAspectRatio="xMidYMid meet">
<metadata>
Created by potrace 1.10, written by Peter Selinger 2001-2011
</metadata>
<g transform="translate(0.000000,301.000000) scale(0.100000,-0.100000)"
fill="#000000" stroke="none">
<path d="M1485 2770 c-74 -13 -613 -188 -660 -213 -81 -45 -112 -141 -60 -192
32 -33 67 -32 184 5 52 16 95 29 96 27 2 -1 -15 -110 -36 -242 -22 -132 -43
-267 -48 -300 -56 -362 -103 -641 -109 -646 -4 -4 -23 -11 -42 -17 -202 -60
-460 -152 -524 -185 -143 -76 -229 -187 -242 -313 -18 -172 96 -304 289 -336
170 -28 418 59 563 198 110 106 164 205 206 378 l30 124 167 57 c194 66 359
144 451 214 256 193 330 552 148 716 -47 42 -122 75 -171 75 -14 0 -1 18 50
68 48 46 80 89 103 135 83 170 29 364 -120 430 -51 23 -193 32 -275 17z m89
-241 c58 -27 71 -131 27 -216 -22 -44 -83 -103 -132 -128 -44 -23 -161 -67
-165 -62 -6 5 54 368 61 376 12 12 111 39 147 40 20 1 48 -4 62 -10z m45 -609
c53 -27 76 -76 76 -165 -1 -137 -86 -256 -241 -337 -62 -32 -273 -112 -279
-106 -2 3 62 422 80 525 5 29 12 34 68 52 160 53 238 61 296 31z m-813 -1007
c-52 -194 -227 -340 -364 -304 -52 14 -92 61 -92 106 0 39 36 87 84 112 26 14
356 129 378 132 3 1 1 -20 -6 -46z"/>
<path d="M2455 2293 c-87 -19 -169 -43 -372 -109 l-234 -76 40 -28 c89 -65
123 -141 125 -280 1 -98 -14 -160 -57 -245 -15 -28 -39 -154 -83 -429 -34
-214 -66 -392 -71 -396 -4 -4 -96 -35 -203 -69 -107 -34 -230 -76 -273 -93
-148 -58 -254 -146 -303 -251 -42 -90 -40 -91 94 -47 156 51 980 318 1157 375
389 126 594 295 660 545 19 71 19 183 0 247 -31 104 -122 182 -232 199 l-42 6
72 72 c98 96 129 161 135 279 4 83 3 91 -28 153 -37 75 -85 116 -163 139 -47
14 -176 19 -222 8z m98 -262 c18 -18 22 -33 22 -89 0 -135 -79 -220 -264 -283
-30 -11 -55 -18 -57 -17 -1 2 12 88 30 193 l31 189 55 18 c74 23 154 19 183
-11z m17 -589 c48 -24 80 -89 80 -164 0 -180 -142 -319 -421 -413 -90 -31 -99
-32 -99 -15 0 10 16 118 35 241 19 123 38 241 41 261 6 38 6 38 89 63 156 48
221 54 275 27z"/>
</g>
</svg>
